<svg width="500" height="160" viewBox="0 0 500 160" fill="none" xmlns="http://www.w3.org/2000/svg">
<rect width="500" height="160" fill="white"/>
<path d="M64.0979 45.8541C64.6966 44.0115 67.3034 44.0115 67.9021 45.8541L74.5315 66.2574C74.7993 67.0814 75.5672 67.6393 76.4336 67.6393H97.8869C99.8243 67.6393 100.63 70.1186 99.0625 71.2574L81.7064 83.8673C81.0054 84.3765 80.7121 85.2793 80.9799 86.1033L87.6093 106.507C88.208 108.349 86.099 109.881 84.5316 108.743L67.1756 96.1327C66.4746 95.6235 65.5254 95.6235 64.8244 96.1327L47.4684 108.743C45.901 109.881 43.792 108.349 44.3907 106.507L51.0201 86.1033C51.2879 85.2793 50.9946 84.3765 50.2936 83.8673L32.9375 71.2574C31.3701 70.1186 32.1757 67.6393 34.1131 67.6393H55.5664C56.4328 67.6393 57.2007 67.0814 57.4685 66.2574L64.0979 45.8541Z" fill="#C4C4C4"/>
<path d="M156.098 45.8541C156.697 44.0115 159.303 44.0115 159.902 45.8541L166.532 66.2574C166.799 67.0814 167.567 67.6393 168.434 67.6393H189.887C191.824 67.6393 192.63 70.1186 191.062 71.2574L173.706 83.8673C173.005 84.3765 172.712 85.2793 172.98 86.1033L179.609 106.507C180.208 108.349 178.099 109.881 176.532 108.743L159.176 96.1327C158.475 95.6235 157.525 95.6235 156.824 96.1327L139.468 108.743C137.901 109.881 135.792 108.349 136.391 106.507L143.02 86.1033C143.288 85.2793 142.995 84.3765 142.294 83.8673L124.938 71.2574C123.37 70.1186 124.176 67.6393 126.113 67.6393H147.566C148.433 67.6393 149.201 67.0814 149.468 66.2574L156.098 45.8541Z" fill="#C4C4C4"/>
<path d="M248.098 45.8541C248.697 44.0115 251.303 44.0115 251.902 45.8541L258.532 66.2574C258.799 67.0814 259.567 67.6393 260.434 67.6393H281.887C283.824 67.6393 284.63 70.1186 283.062 71.2574L265.706 83.8673C265.005 84.3765 264.712 85.2793 264.98 86.1033L271.609 106.507C272.208 108.349 270.099 109.881 268.532 108.743L251.176 96.1327C250.475 95.6235 249.525 95.6235 248.824 96.1327L231.468 108.743C229.901 109.881 227.792 108.349 228.391 106.507L235.02 86.1033C235.288 85.2793 234.995 84.3765 234.294 83.8673L216.938 71.2574C215.37 70.1186 216.176 67.6393 218.113 67.6393H239.566C240.433 67.6393 241.201 67.0814 241.468 66.2574L248.098 45.8541Z" fill="#C4C4C4"/>
<path d="M340.098 45.8541C340.697 44.0115 343.303 44.0115 343.902 45.8541L350.532 66.2574C350.799 67.0814 351.567 67.6393 352.434 67.6393H373.887C375.824 67.6393 376.63 70.1186 375.062 71.2574L357.706 83.8673C357.005 84.3765 356.712 85.2793 356.98 86.1033L363.609 106.507C364.208 108.349 362.099 109.881 360.532 108.743L343.176 96.1327C342.475 95.6235 341.525 95.6235 340.824 96.1327L323.468 108.743C321.901 109.881 319.792 108.349 320.391 106.507L327.02 86.1033C327.288 85.2793 326.995 84.3765 326.294 83.8673L308.938 71.2574C307.37 70.1186 308.176 67.6393 310.113 67.6393H331.566C332.433 67.6393 333.201 67.0814 333.468 66.2574L340.098 45.8541Z" fill="#C4C4C4"/>
<path d="M432.098 45.8541C432.697 44.0115 435.303 44.0115 435.902 45.8541L442.532 66.2574C442.799 67.0814 443.567 67.6393 444.434 67.6393H465.887C467.824 67.6393 468.63 70.1186 467.062 71.2574L449.706 83.8673C449.005 84.3765 448.712 85.2793 448.98 86.1033L455.609 106.507C456.208 108.349 454.099 109.881 452.532 108.743L435.176 96.1327C434.475 95.6235 433.525 95.6235 432.824 96.1327L415.468 108.743C413.901 109.881 411.792 108.349 412.391 106.507L419.02 86.1033C419.288 85.2793 418.995 84.3765 418.294 83.8673L400.938 71.2574C399.37 70.1186 400.176 67.6393 402.113 67.6393H423.566C424.433 67.6393 425.201 67.0814 425.468 66.2574L432.098 45.8541Z" fill="#C4C4C4"/>
</svg>
